<mxfile host="app.diagrams.net" modified="2022-12-26T03:00:26.689Z" agent="5.0 (Windows NT 10.0; Win64; x64) AppleWebKit/537.36 (KHTML, like Gecko) Chrome/108.0.0.0 Safari/537.36" version="20.7.4" etag="Ssr9i72ucAzkqVnCWnfo" type="github">
  <diagram id="hOZL6hikDpAyYBfnW0xj" name="第 1 页">
    <mxGraphModel dx="1434" dy="764" grid="1" gridSize="10" guides="1" tooltips="1" connect="1" arrows="1" fold="1" page="1" pageScale="1" pageWidth="827" pageHeight="1169" math="0" shadow="0">
      <root>
        <mxCell id="0" />
        <mxCell id="1" parent="0" />
        <mxCell id="UZ2cpGHG2b40-gCusqkM-1" value="CI&amp;nbsp; &amp;nbsp; &amp;nbsp; &amp;nbsp; &amp;nbsp; &amp;nbsp; &amp;nbsp; &amp;nbsp; &amp;nbsp; &amp;nbsp; &amp;nbsp; &amp;nbsp; &amp;nbsp; &amp;nbsp; &amp;nbsp; &amp;nbsp; &amp;nbsp; &amp;nbsp; &amp;nbsp; &amp;nbsp; &amp;nbsp; &amp;nbsp; &amp;nbsp; &amp;nbsp; &amp;nbsp; &amp;nbsp; &amp;nbsp; &amp;nbsp; &amp;nbsp; &amp;nbsp; &amp;nbsp; &amp;nbsp; &amp;nbsp; &amp;nbsp; &amp;nbsp; &amp;nbsp; &amp;nbsp; &amp;nbsp; &amp;nbsp; &amp;nbsp; &amp;nbsp; &amp;nbsp; &amp;nbsp; &amp;nbsp; &amp;nbsp; &amp;nbsp; CD" style="swimlane;html=1;childLayout=stackLayout;horizontal=1;startSize=20;horizontalStack=0;rounded=0;shadow=0;labelBackgroundColor=none;strokeWidth=1;fontFamily=Verdana;fontSize=8;align=center;" vertex="1" parent="1">
          <mxGeometry x="79" y="190" width="670" height="500" as="geometry" />
        </mxCell>
        <mxCell id="UZ2cpGHG2b40-gCusqkM-2" value="CICD 平台" style="swimlane;html=1;startSize=20;horizontal=0;" vertex="1" parent="UZ2cpGHG2b40-gCusqkM-1">
          <mxGeometry y="20" width="670" height="180" as="geometry" />
        </mxCell>
        <mxCell id="UZ2cpGHG2b40-gCusqkM-3" value="Actor" style="shape=umlActor;verticalLabelPosition=bottom;verticalAlign=top;html=1;outlineConnect=0;" vertex="1" parent="UZ2cpGHG2b40-gCusqkM-2">
          <mxGeometry x="40" y="70" width="20" height="30" as="geometry" />
        </mxCell>
        <mxCell id="UZ2cpGHG2b40-gCusqkM-4" value="构建镜像" style="rounded=0;whiteSpace=wrap;html=1;" vertex="1" parent="UZ2cpGHG2b40-gCusqkM-2">
          <mxGeometry x="110" y="70" width="70" height="30" as="geometry" />
        </mxCell>
        <mxCell id="UZ2cpGHG2b40-gCusqkM-5" value="" style="endArrow=classic;html=1;rounded=0;" edge="1" parent="UZ2cpGHG2b40-gCusqkM-2">
          <mxGeometry width="50" height="50" relative="1" as="geometry">
            <mxPoint x="70" y="84.5" as="sourcePoint" />
            <mxPoint x="110" y="84.5" as="targetPoint" />
            <Array as="points" />
          </mxGeometry>
        </mxCell>
        <mxCell id="UZ2cpGHG2b40-gCusqkM-6" value="Actor" style="shape=umlActor;verticalLabelPosition=bottom;verticalAlign=top;html=1;outlineConnect=0;" vertex="1" parent="UZ2cpGHG2b40-gCusqkM-2">
          <mxGeometry x="350" y="70" width="20" height="30" as="geometry" />
        </mxCell>
        <mxCell id="UZ2cpGHG2b40-gCusqkM-7" value="build config" style="shape=document;whiteSpace=wrap;html=1;boundedLbl=1;" vertex="1" parent="UZ2cpGHG2b40-gCusqkM-2">
          <mxGeometry x="210" y="10" width="70" height="35" as="geometry" />
        </mxCell>
        <mxCell id="UZ2cpGHG2b40-gCusqkM-8" value="构建" style="rounded=0;whiteSpace=wrap;html=1;" vertex="1" parent="UZ2cpGHG2b40-gCusqkM-2">
          <mxGeometry x="210" y="70" width="70" height="30" as="geometry" />
        </mxCell>
        <mxCell id="UZ2cpGHG2b40-gCusqkM-9" value="" style="endArrow=classic;html=1;rounded=0;exitX=1;exitY=0.5;exitDx=0;exitDy=0;entryX=0;entryY=0.5;entryDx=0;entryDy=0;" edge="1" parent="UZ2cpGHG2b40-gCusqkM-2" source="UZ2cpGHG2b40-gCusqkM-4" target="UZ2cpGHG2b40-gCusqkM-8">
          <mxGeometry width="50" height="50" relative="1" as="geometry">
            <mxPoint x="210" y="130" as="sourcePoint" />
            <mxPoint x="250" y="130" as="targetPoint" />
            <Array as="points" />
          </mxGeometry>
        </mxCell>
        <mxCell id="UZ2cpGHG2b40-gCusqkM-10" value="" style="endArrow=classic;html=1;rounded=0;exitX=0.5;exitY=0.9;exitDx=0;exitDy=0;exitPerimeter=0;entryX=0.5;entryY=0;entryDx=0;entryDy=0;" edge="1" parent="UZ2cpGHG2b40-gCusqkM-2" source="UZ2cpGHG2b40-gCusqkM-7" target="UZ2cpGHG2b40-gCusqkM-8">
          <mxGeometry width="50" height="50" relative="1" as="geometry">
            <mxPoint x="300" y="220" as="sourcePoint" />
            <mxPoint x="340" y="220" as="targetPoint" />
            <Array as="points" />
          </mxGeometry>
        </mxCell>
        <mxCell id="UZ2cpGHG2b40-gCusqkM-11" value="选择镜像" style="rounded=0;whiteSpace=wrap;html=1;" vertex="1" parent="UZ2cpGHG2b40-gCusqkM-2">
          <mxGeometry x="410" y="10" width="70" height="30" as="geometry" />
        </mxCell>
        <mxCell id="UZ2cpGHG2b40-gCusqkM-12" value="配置initcontainer" style="rounded=0;whiteSpace=wrap;html=1;" vertex="1" parent="UZ2cpGHG2b40-gCusqkM-2">
          <mxGeometry x="410" y="50" width="70" height="30" as="geometry" />
        </mxCell>
        <mxCell id="UZ2cpGHG2b40-gCusqkM-13" value="配置 Env" style="rounded=0;whiteSpace=wrap;html=1;" vertex="1" parent="UZ2cpGHG2b40-gCusqkM-2">
          <mxGeometry x="410" y="90" width="70" height="30" as="geometry" />
        </mxCell>
        <mxCell id="UZ2cpGHG2b40-gCusqkM-14" value="添加配置文件" style="rounded=0;whiteSpace=wrap;html=1;" vertex="1" parent="UZ2cpGHG2b40-gCusqkM-2">
          <mxGeometry x="410" y="130" width="70" height="30" as="geometry" />
        </mxCell>
        <mxCell id="UZ2cpGHG2b40-gCusqkM-15" value="" style="endArrow=classic;html=1;rounded=0;" edge="1" parent="UZ2cpGHG2b40-gCusqkM-2">
          <mxGeometry width="50" height="50" relative="1" as="geometry">
            <mxPoint x="370" y="84.5" as="sourcePoint" />
            <mxPoint x="400" y="84.5" as="targetPoint" />
          </mxGeometry>
        </mxCell>
        <mxCell id="UZ2cpGHG2b40-gCusqkM-16" value="" style="endArrow=classic;html=1;rounded=0;" edge="1" parent="UZ2cpGHG2b40-gCusqkM-2">
          <mxGeometry width="50" height="50" relative="1" as="geometry">
            <mxPoint x="510" y="84.5" as="sourcePoint" />
            <mxPoint x="540" y="84.5" as="targetPoint" />
          </mxGeometry>
        </mxCell>
        <mxCell id="UZ2cpGHG2b40-gCusqkM-17" value="生成 chart 文件" style="rounded=0;whiteSpace=wrap;html=1;" vertex="1" parent="UZ2cpGHG2b40-gCusqkM-2">
          <mxGeometry x="581" y="70" width="70" height="30" as="geometry" />
        </mxCell>
        <mxCell id="UZ2cpGHG2b40-gCusqkM-36" value="&lt;span style=&quot;text-align: left;&quot;&gt;添加 IAST initconttainer&lt;/span&gt;" style="rounded=0;whiteSpace=wrap;html=1;fillColor=#d5e8d4;strokeColor=#82b366;" vertex="1" parent="UZ2cpGHG2b40-gCusqkM-2">
          <mxGeometry x="501" y="10" width="70" height="30" as="geometry" />
        </mxCell>
        <mxCell id="UZ2cpGHG2b40-gCusqkM-55" value="&lt;span style=&quot;text-align: left;&quot;&gt;添加 IAST Env&lt;/span&gt;" style="rounded=0;whiteSpace=wrap;html=1;fillColor=#d5e8d4;strokeColor=#82b366;" vertex="1" parent="UZ2cpGHG2b40-gCusqkM-2">
          <mxGeometry x="501" y="45" width="70" height="30" as="geometry" />
        </mxCell>
        <mxCell id="UZ2cpGHG2b40-gCusqkM-18" value="K8S 集群" style="swimlane;html=1;startSize=20;horizontal=0;" vertex="1" parent="UZ2cpGHG2b40-gCusqkM-1">
          <mxGeometry y="200" width="670" height="150" as="geometry" />
        </mxCell>
        <mxCell id="UZ2cpGHG2b40-gCusqkM-19" value="" style="endArrow=classic;html=1;rounded=0;exitX=0.5;exitY=1;exitDx=0;exitDy=0;" edge="1" parent="UZ2cpGHG2b40-gCusqkM-18" source="UZ2cpGHG2b40-gCusqkM-8">
          <mxGeometry width="50" height="50" relative="1" as="geometry">
            <mxPoint x="244.5" y="-50" as="sourcePoint" />
            <mxPoint x="245" y="210" as="targetPoint" />
          </mxGeometry>
        </mxCell>
        <mxCell id="UZ2cpGHG2b40-gCusqkM-20" value="部署" style="rounded=0;whiteSpace=wrap;html=1;" vertex="1" parent="UZ2cpGHG2b40-gCusqkM-18">
          <mxGeometry x="581" y="60" width="70" height="30" as="geometry" />
        </mxCell>
        <mxCell id="UZ2cpGHG2b40-gCusqkM-21" value="running app" style="rounded=0;whiteSpace=wrap;html=1;" vertex="1" parent="UZ2cpGHG2b40-gCusqkM-18">
          <mxGeometry x="410" y="60" width="70" height="30" as="geometry" />
        </mxCell>
        <mxCell id="UZ2cpGHG2b40-gCusqkM-22" value="" style="endArrow=classic;html=1;rounded=0;entryX=1;entryY=0.5;entryDx=0;entryDy=0;exitX=0;exitY=0.5;exitDx=0;exitDy=0;" edge="1" parent="UZ2cpGHG2b40-gCusqkM-18" source="UZ2cpGHG2b40-gCusqkM-20" target="UZ2cpGHG2b40-gCusqkM-21">
          <mxGeometry width="50" height="50" relative="1" as="geometry">
            <mxPoint x="551" y="75" as="sourcePoint" />
            <mxPoint x="480" y="230" as="targetPoint" />
          </mxGeometry>
        </mxCell>
        <mxCell id="UZ2cpGHG2b40-gCusqkM-23" value="镜像仓库" style="swimlane;html=1;startSize=20;horizontal=0;" vertex="1" parent="UZ2cpGHG2b40-gCusqkM-1">
          <mxGeometry y="350" width="670" height="150" as="geometry" />
        </mxCell>
        <mxCell id="UZ2cpGHG2b40-gCusqkM-24" value="镜像" style="rounded=0;whiteSpace=wrap;html=1;" vertex="1" parent="UZ2cpGHG2b40-gCusqkM-23">
          <mxGeometry x="210" y="60" width="70" height="30" as="geometry" />
        </mxCell>
        <mxCell id="UZ2cpGHG2b40-gCusqkM-25" value="镜像" style="rounded=0;whiteSpace=wrap;html=1;" vertex="1" parent="UZ2cpGHG2b40-gCusqkM-23">
          <mxGeometry x="340" y="60" width="70" height="30" as="geometry" />
        </mxCell>
        <mxCell id="UZ2cpGHG2b40-gCusqkM-26" value="镜像" style="rounded=0;whiteSpace=wrap;html=1;" vertex="1" parent="UZ2cpGHG2b40-gCusqkM-23">
          <mxGeometry x="470" y="60" width="70" height="30" as="geometry" />
        </mxCell>
        <mxCell id="UZ2cpGHG2b40-gCusqkM-27" value="" style="curved=1;endArrow=classic;html=1;" edge="1" parent="UZ2cpGHG2b40-gCusqkM-23">
          <mxGeometry width="50" height="50" relative="1" as="geometry">
            <mxPoint x="480" y="60" as="sourcePoint" />
            <mxPoint x="530" y="-70" as="targetPoint" />
            <Array as="points">
              <mxPoint x="530" y="60" />
              <mxPoint x="480" y="10" />
            </Array>
          </mxGeometry>
        </mxCell>
        <mxCell id="UZ2cpGHG2b40-gCusqkM-31" value="" style="endArrow=none;dashed=1;html=1;dashPattern=1 3;strokeWidth=2;rounded=0;" edge="1" parent="UZ2cpGHG2b40-gCusqkM-23">
          <mxGeometry width="50" height="50" relative="1" as="geometry">
            <mxPoint x="291" y="80" as="sourcePoint" />
            <mxPoint x="321" y="80" as="targetPoint" />
          </mxGeometry>
        </mxCell>
        <mxCell id="UZ2cpGHG2b40-gCusqkM-32" value="" style="endArrow=none;dashed=1;html=1;dashPattern=1 3;strokeWidth=2;rounded=0;" edge="1" parent="UZ2cpGHG2b40-gCusqkM-23">
          <mxGeometry width="50" height="50" relative="1" as="geometry">
            <mxPoint x="431" y="80" as="sourcePoint" />
            <mxPoint x="461" y="80" as="targetPoint" />
          </mxGeometry>
        </mxCell>
        <mxCell id="UZ2cpGHG2b40-gCusqkM-28" value="" style="endArrow=classic;html=1;rounded=0;exitX=0.5;exitY=1;exitDx=0;exitDy=0;" edge="1" parent="UZ2cpGHG2b40-gCusqkM-1" source="UZ2cpGHG2b40-gCusqkM-17">
          <mxGeometry width="50" height="50" relative="1" as="geometry">
            <mxPoint x="430" y="330" as="sourcePoint" />
            <mxPoint x="616" y="260" as="targetPoint" />
          </mxGeometry>
        </mxCell>
        <mxCell id="UZ2cpGHG2b40-gCusqkM-29" value="" style="curved=1;endArrow=classic;html=1;exitX=0.5;exitY=0;exitDx=0;exitDy=0;entryX=0;entryY=0.5;entryDx=0;entryDy=0;" edge="1" parent="UZ2cpGHG2b40-gCusqkM-1" source="UZ2cpGHG2b40-gCusqkM-25" target="UZ2cpGHG2b40-gCusqkM-11">
          <mxGeometry width="50" height="50" relative="1" as="geometry">
            <mxPoint x="370" y="390" as="sourcePoint" />
            <mxPoint x="400" y="40" as="targetPoint" />
            <Array as="points">
              <mxPoint x="420" y="390" />
              <mxPoint x="370" y="340" />
              <mxPoint x="370" y="240" />
              <mxPoint x="370" y="160" />
              <mxPoint x="380" y="90" />
            </Array>
          </mxGeometry>
        </mxCell>
        <mxCell id="UZ2cpGHG2b40-gCusqkM-30" value="" style="endArrow=none;dashed=1;html=1;dashPattern=1 3;strokeWidth=2;entryX=0.5;entryY=0;entryDx=0;entryDy=0;exitX=0.5;exitY=1;exitDx=0;exitDy=0;" edge="1" parent="UZ2cpGHG2b40-gCusqkM-1" source="UZ2cpGHG2b40-gCusqkM-23" target="UZ2cpGHG2b40-gCusqkM-1">
          <mxGeometry width="50" height="50" relative="1" as="geometry">
            <mxPoint x="430" y="380" as="sourcePoint" />
            <mxPoint x="480" y="330" as="targetPoint" />
          </mxGeometry>
        </mxCell>
        <mxCell id="UZ2cpGHG2b40-gCusqkM-35" value="添加 IAST initconttainer" style="text;whiteSpace=wrap;html=1;" vertex="1" parent="1">
          <mxGeometry x="480" y="30" width="160" height="40" as="geometry" />
        </mxCell>
      </root>
    </mxGraphModel>
  </diagram>
</mxfile>
